<svg width="91" height="32" viewBox="0 0 91 32" fill="none" xmlns="http://www.w3.org/2000/svg">
<path d="M4.13663 12.2056C5.10079 12.2056 5.9192 12.5475 6.59187 13.2258C7.27015 13.8985 7.61209 14.7225 7.61209 15.6922C7.61209 16.6424 7.27015 17.4524 6.59187 18.1251C5.9192 18.7977 5.10079 19.1341 4.13663 19.1341C3.18648 19.1341 2.37087 18.7977 1.6926 18.1251C1.01993 17.4524 0.683594 16.6424 0.683594 15.6922C0.683594 14.7225 1.01993 13.8985 1.6926 13.2258C2.37087 12.5475 3.18648 12.2056 4.13663 12.2056Z" fill="#312F33"/>
<path d="M10.9023 12.239V0.77002H13.6267V9.51472L12.2701 12.239H10.9023Z" fill="#312F33"/>
<path d="M15.8711 18.6855V16.1742H25.5239V7.03706C25.5239 5.62445 25.21 4.64628 24.5822 4.09973C23.9599 3.55599 23.0939 3.28132 21.9812 3.28132H15.8711V0.77002H22.1606C24.2234 0.77002 25.7509 1.22687 26.7459 2.13778C27.7465 3.04308 28.2482 4.49212 28.2482 6.48771V16.1742H30.6026V18.6855H15.8711Z" fill="#312F33"/>
<path d="M41.831 18.6855V7.03706C41.831 5.62445 41.5171 4.64628 40.8893 4.09973C40.267 3.55599 39.401 3.28132 38.2883 3.28132H31.0234V0.77002H38.4676C40.5305 0.77002 42.058 1.22687 43.053 2.13778C44.0536 3.04308 44.5553 4.49212 44.5553 6.48771V18.6855H41.831Z" fill="#312F33"/>
<path d="M48.75 18.6855V0.77002H51.4743V18.6855H48.75Z" fill="#312F33"/>
<path d="M63.8584 0.411377C65.9493 0.411377 67.5581 0.983146 68.6792 2.12668C69.8003 3.26462 70.3609 4.73888 70.3609 6.55509V18.6856H62.4906V16.1743H67.6365V6.9699C67.6365 5.72266 67.317 4.71646 66.6836 3.9541C66.0474 3.18614 65.0412 2.79935 63.6678 2.79935C62.0758 2.79935 60.8762 3.3431 60.069 4.42497C59.2618 5.50124 58.7573 6.95589 58.5555 8.78611L57.5017 18.6856H54.7773L56.1339 6.27481L54.9231 0.770134H57.6474L58.1631 3.31507H58.2528C58.5947 2.80776 59.0096 2.33409 59.4972 1.89125C59.9821 1.45121 60.5735 1.09526 61.2686 0.82619C61.9637 0.551516 62.827 0.411377 63.8584 0.411377Z" fill="#312F33"/>
<path d="M83.819 0.77002C85.8819 0.77002 87.4094 1.22687 88.4044 2.13778C89.405 3.04308 89.9067 4.49212 89.9067 6.48771V18.6855H87.1824V7.03706C87.1824 5.62445 86.8684 4.64628 86.2406 4.09973C85.6184 3.55599 84.7523 3.28132 83.6396 3.28132H77.2829V18.6855H74.5586V0.77002H83.819Z" fill="#312F33"/>
<path d="M6.29214 30.5886H2.03973V25.9473H4.20146C4.93949 25.9473 5.45686 26.0869 5.75357 26.3661C6.05028 26.6429 6.2298 27.154 6.29214 27.8995V30.5886ZM3.04953 29.6835H5.27859V28.0155C5.27859 27.5916 5.1988 27.2924 5.03923 27.1179C4.87965 26.9409 4.6004 26.8523 4.20146 26.8523H2.88871L3.04953 29.6835ZM8.56981 25.9473V28.4119H7.56001V25.9473H8.56981ZM11.8386 30.6634C11.1504 30.6634 10.6443 30.5038 10.3201 30.1847C9.99601 29.8631 9.83394 29.3694 9.83394 28.7036V25.9473H10.8437V28.6812C10.8437 29.0527 10.9235 29.3245 11.0831 29.4965C11.2427 29.6686 11.497 29.7546 11.8461 29.7546C12.1004 29.7546 12.3161 29.706 12.4931 29.6087C12.6701 29.509 12.8048 29.337 12.897 29.0926C12.9893 28.8458 13.0354 28.5042 13.0354 28.0678C13.0354 27.6365 12.9868 27.3149 12.8895 27.1029C12.7923 26.8885 12.6315 26.7813 12.4071 26.7813C12.1902 26.7813 11.9633 26.8523 11.7264 26.9945V26.0782C11.9608 25.9385 12.2438 25.8687 12.5754 25.8687C13.109 25.8687 13.4917 26.0432 13.7236 26.3923C13.9579 26.7389 14.0751 27.2949 14.0751 28.0604C14.0751 28.963 13.8956 29.6224 13.5366 30.0388C13.18 30.4552 12.614 30.6634 11.8386 30.6634ZM18.047 28.0379C18.047 27.639 17.956 27.3423 17.774 27.1478C17.592 26.9508 17.3053 26.8523 16.9138 26.8523H16.0499V27.8547H16.9587V28.7598H15.0288V25.9473H16.9213C17.6543 25.9473 18.1954 26.118 18.5445 26.4596C18.8935 26.8012 19.0681 27.3323 19.0681 28.0529V28.3596C19.0681 29.8456 18.3039 30.5886 16.7754 30.5886H15.07V29.6835H16.753C17.1843 29.6835 17.5072 29.5726 17.7217 29.3507C17.9386 29.1288 18.047 28.7959 18.047 28.3521V28.0379ZM24.0647 30.1286C23.8603 30.2433 23.6085 30.338 23.3093 30.4128C23.0125 30.4851 22.6423 30.5388 22.1985 30.5737C21.7571 30.6086 21.2173 30.626 20.579 30.626L19.7039 25.9473H20.7623L21.17 28.1838L21.443 28.1314C21.6125 28.099 21.7372 28.0442 21.817 27.9669C21.8993 27.8871 21.9616 27.7686 22.004 27.6116C22.0239 27.5343 22.0426 27.4271 22.0601 27.2899C22.08 27.1503 22.0987 26.9807 22.1162 26.7813L22.1723 25.9473H23.2045L23.0923 27.2263C23.0774 27.4009 23.0562 27.558 23.0288 27.6976C23.0013 27.8372 22.9664 27.9581 22.924 28.0604C22.8418 28.2648 22.7258 28.4244 22.5762 28.5391C22.4291 28.6538 22.1947 28.7498 21.8731 28.8271L21.3121 28.958L21.4654 29.7247H21.5552C21.8669 29.7247 22.1424 29.7122 22.3817 29.6873C22.6236 29.6598 22.8293 29.6187 22.9988 29.5639C23.2257 29.494 23.4127 29.3968 23.5598 29.2721C23.7069 29.145 23.8229 28.9767 23.9077 28.7672C23.9924 28.5553 24.0523 28.2873 24.0872 27.9631L24.3228 25.9473H25.3663L25.1269 27.9369C25.077 28.3658 25.0072 28.7211 24.9175 29.0029C24.8302 29.2846 24.7168 29.514 24.5771 29.691C24.44 29.8656 24.2692 30.0114 24.0647 30.1286ZM28.7884 25.9248C29.4242 25.9248 29.8867 26.1118 30.1759 26.4858C30.4652 26.8573 30.6098 27.4383 30.6098 28.2287V30.5886H28.1975V29.6835H29.5925V28.3072C29.5925 27.7811 29.5289 27.4046 29.4018 27.1777C29.2771 26.9483 29.0564 26.8336 28.7398 26.8336C28.4481 26.8336 28.2025 26.9795 28.003 27.2712C27.8035 27.5704 27.6178 28.0691 27.4457 28.7672L26.9932 30.5886H25.9161L26.421 28.6513C26.4833 28.4169 26.5431 28.2075 26.6005 28.023C26.6603 27.8385 26.7177 27.6801 26.7725 27.548L25.845 25.9996H26.9633L27.3148 26.6579C27.4644 26.4285 27.6689 26.2489 27.9282 26.1193C28.19 25.9896 28.4767 25.9248 28.7884 25.9248ZM31.9487 29.7247C32.5571 29.5252 33.0483 29.2734 33.4223 28.9692C33.6816 28.7622 33.8798 28.5366 34.017 28.2922C34.1541 28.0454 34.2227 27.7873 34.2227 27.5181C34.2227 27.0742 33.9446 26.8523 33.3886 26.8523H31.4887V24.3615H32.5209V25.9473H33.5569C34.6789 25.9473 35.2399 26.4372 35.2399 27.4171C35.2399 27.8858 35.129 28.3247 34.9071 28.7336C34.6877 29.14 34.3735 29.5028 33.9646 29.8219C33.426 30.2408 32.7541 30.5699 31.9487 30.8093V29.7247ZM39.5859 29.8481C39.4861 30.1049 39.3328 30.2932 39.1258 30.4128C38.9189 30.53 38.6184 30.5886 38.2245 30.5886H37.9702V29.6835H38.0337C38.2058 29.6835 38.3429 29.6511 38.4451 29.5863C38.5449 29.5215 38.6159 29.423 38.6583 29.2908C38.7007 29.1562 38.7219 28.953 38.7219 28.6812V26.8523H38.0113V25.9473H40.6144C41.3324 25.9473 41.8473 26.0993 42.159 26.4035C42.4732 26.7052 42.6302 27.2064 42.6302 27.907V30.5886H41.6167V27.922C41.6167 27.523 41.5357 27.245 41.3736 27.088C41.2115 26.9309 40.9385 26.8523 40.5545 26.8523H39.7317V28.8121C39.7317 29.2435 39.6831 29.5888 39.5859 29.8481ZM44.9004 25.9473V28.4119H43.8906V25.9473H44.9004ZM47.395 29.8481C47.2953 30.1049 47.142 30.2932 46.935 30.4128C46.7281 30.53 46.4276 30.5886 46.0337 30.5886H45.7793V29.6835H45.8429C46.015 29.6835 46.1521 29.6511 46.2543 29.5863C46.3541 29.5215 46.4251 29.423 46.4675 29.2908C46.5099 29.1562 46.5311 28.953 46.5311 28.6812V26.8523H45.8205V25.9473H48.4235C49.1416 25.9473 49.6565 26.0993 49.9682 26.4035C50.2823 26.7052 50.4394 27.2064 50.4394 27.907V30.5886H49.4259V27.922C49.4259 27.523 49.3448 27.245 49.1828 27.088C49.0207 26.9309 48.7477 26.8523 48.3637 26.8523H47.5409V28.8121C47.5409 29.2435 47.4923 29.5888 47.395 29.8481ZM52.7096 25.9473V30.5886H51.6998V25.9473H52.7096ZM57.1752 28.3596C57.1752 29.8456 56.4172 30.5886 54.9013 30.5886H53.6596V29.6835H54.8452C55.2915 29.6835 55.6218 29.5713 55.8363 29.3469C56.0507 29.1225 56.1579 28.7809 56.1579 28.3222V28.2212C56.1579 27.7549 56.0507 27.4108 55.8363 27.1889C55.6218 26.9645 55.2965 26.8523 54.8601 26.8523H53.6596V25.9473H54.9536C56.4347 25.9473 57.1752 26.6878 57.1752 28.1688V28.3596ZM58.8956 30.5886H57.8484L58.1626 29.0403C58.2523 28.6114 58.3346 28.306 58.4094 28.1239C58.4842 27.9394 58.5765 27.7936 58.6862 27.6864C58.7984 27.5767 58.953 27.4794 59.1499 27.3946L58.0691 25.9473H59.2958L60.8105 28.0454C60.9676 27.9033 61.0873 27.7362 61.1695 27.5442C61.2518 27.3523 61.3104 27.0929 61.3453 26.7663L61.4239 25.9473H62.4561L62.3664 26.8336C62.3389 27.0855 62.2891 27.3086 62.2168 27.5031C62.1669 27.6352 62.1058 27.7599 62.0335 27.8771C61.9612 27.9918 61.8664 28.114 61.7493 28.2436C61.6346 28.3708 61.4825 28.5191 61.293 28.6887L62.688 30.5886H61.4688L59.6025 28.0005C59.4703 28.0778 59.3756 28.19 59.3182 28.3371C59.2908 28.4119 59.2609 28.5241 59.2285 28.6737C59.1961 28.8233 59.1624 29.0103 59.1275 29.2347L58.8956 30.5886ZM63.5519 29.7247C64.1603 29.5252 64.6515 29.2734 65.0255 28.9692C65.2848 28.7622 65.483 28.5366 65.6202 28.2922C65.7573 28.0454 65.8259 27.7873 65.8259 27.5181C65.8259 27.0742 65.5479 26.8523 64.9919 26.8523H63.0919V24.3615H64.1242V25.9473H65.1602C66.2822 25.9473 66.8432 26.4372 66.8432 27.4171C66.8432 27.8858 66.7322 28.3247 66.5103 28.7336C66.2909 29.14 65.9767 29.5028 65.5678 29.8219C65.0293 30.2408 64.3573 30.5699 63.5519 30.8093V29.7247ZM70.3401 25.9248C70.9759 25.9248 71.4384 26.1118 71.7276 26.4858C72.0169 26.8573 72.1615 27.4383 72.1615 28.2287V30.5886H69.7492V29.6835H71.1442V28.3072C71.1442 27.7811 71.0806 27.4046 70.9535 27.1777C70.8288 26.9483 70.6081 26.8336 70.2915 26.8336C69.9998 26.8336 69.7542 26.9795 69.5547 27.2712C69.3552 27.5704 69.1695 28.0691 68.9974 28.7672L68.5449 30.5886H67.4678L67.9727 28.6513C68.035 28.4169 68.0948 28.2075 68.1522 28.023C68.212 27.8385 68.2694 27.6801 68.3242 27.548L67.3967 25.9996H68.515L68.8665 26.6579C69.0161 26.4285 69.2206 26.2489 69.4799 26.1193C69.7417 25.9896 70.0284 25.9248 70.3401 25.9248ZM79.477 30.5886H78.4634V27.8921C78.4634 27.5106 78.3824 27.2425 78.2203 27.088C78.0583 26.9309 77.7765 26.8523 77.3751 26.8523H75.4789V25.9473H77.4387C77.9299 25.9473 78.3238 26.0133 78.6205 26.1455C78.9197 26.2776 79.1366 26.4871 79.2713 26.7738C79.4084 27.058 79.477 27.4333 79.477 27.8995V30.5886ZM76.5635 27.7686V30.5886H75.5537V27.7686H76.5635ZM82.7757 30.5886H80.3559V29.6835H81.7659V27.9706C81.7659 27.634 81.7434 27.3934 81.6986 27.2488C81.6537 27.1067 81.5789 27.0057 81.4742 26.9458C81.3694 26.8835 81.2161 26.8523 81.0141 26.8523H80.5691V25.9473H81.2049C81.6337 25.9473 81.9541 26.0046 82.1661 26.1193C82.378 26.234 82.5326 26.4222 82.6298 26.684C82.7271 26.9458 82.7757 27.3099 82.7757 27.7761V30.5886ZM85.0534 25.9473V28.4119H84.0435V25.9473H85.0534ZM90.338 29.6835V30.5886H86.0108V29.6835H88.8308V28.0304C88.8308 27.5941 88.7485 27.2887 88.5839 27.1141C88.4219 26.9396 88.1439 26.8523 87.7499 26.8523H86.1866V25.9473H87.7649C88.4929 25.9473 89.0203 26.0993 89.3469 26.4035C89.676 26.7077 89.8406 27.2064 89.8406 27.8995V29.6835H90.338Z" fill="#312F33"/>
</svg>
