<svg width="80" height="80" viewBox="0 0 80 80" fill="none" xmlns="http://www.w3.org/2000/svg">
<circle cx="40.2656" cy="40.2656" r="30.6403" stroke="#111827" stroke-width="1.25062"/>
<path d="M19.9844 17.4492C25.4479 19.5572 32.5287 20.8293 40.2648 20.8293C48.0009 20.8293 55.0817 19.5572 60.5452 17.4492" stroke="#111827" stroke-width="1.25062"/>
<path d="M19.9844 63.082C25.4479 60.974 32.5287 59.702 40.2648 59.702C48.0009 59.702 55.0817 60.974 60.5452 63.082" stroke="#111827" stroke-width="1.25062"/>
<path fill-rule="evenodd" clip-rule="evenodd" d="M52.6972 53.7859C51.9759 56.7919 51.0238 59.5056 49.8946 61.8266C47.2004 67.3648 43.7172 70.2806 40.2639 70.2806C36.8107 70.2806 33.3275 67.3648 30.6332 61.8266C29.5041 59.5056 28.5519 56.7919 27.8306 53.7859H26.5454C28.9985 64.2838 34.2195 71.5312 40.2639 71.5312C46.3084 71.5312 51.5293 64.2838 53.9824 53.7859H52.6972ZM52.8922 27.5904H54.1724C51.8067 16.6383 46.4692 9 40.2639 9C34.0586 9 28.7212 16.6383 26.3555 27.5904H27.6357C28.3766 24.2468 29.3992 21.2411 30.6332 18.7046C33.3275 13.1664 36.8107 10.2506 40.2639 10.2506C43.7172 10.2506 47.2004 13.1664 49.8946 18.7046C51.1286 21.2411 52.1513 24.2468 52.8922 27.5904Z" fill="#111827"/>
<path d="M27.0146 46.3383V50.4049H17.4141V46.3383H19.2625V36.0908H17.4141V32.0242H27.0146V36.0908H25.1777V46.3383H27.0146Z" fill="#111827"/>
<path d="M37.3314 50.74C36.6998 50.74 36.1607 50.6937 35.714 50.6013C35.2672 50.5089 34.8513 50.3587 34.4662 50.1508C34.0888 49.9428 33.6845 49.6732 33.2532 49.342L32.8488 50.4049H29.1172V44.7786H32.8257C33.0645 45.4256 33.4303 45.8839 33.9232 46.1534C34.4239 46.4153 35.0362 46.5462 35.7602 46.5462C36.2069 46.5462 36.5881 46.4577 36.9039 46.2805C37.2197 46.0957 37.3776 45.8531 37.3776 45.5527C37.3776 45.1753 37.2158 44.8942 36.8924 44.7093C36.5689 44.5168 36.1145 44.3396 35.5291 44.1779C34.782 43.9776 34.1042 43.7658 33.4958 43.5425C32.895 43.3191 32.3559 43.088 31.8784 42.8493C30.9233 42.3718 30.1531 41.694 29.5678 40.816C28.9824 39.9379 28.6898 38.7711 28.6898 37.3154C28.6898 36.1986 28.9324 35.2128 29.4176 34.3579C29.8951 33.5106 30.5806 32.8521 31.474 32.3823C32.3751 31.9048 33.4342 31.666 34.6511 31.666C36.1376 31.666 37.3121 32.1397 38.1747 33.087L38.7639 32.0011H42.0796V37.5118H38.5329C38.2017 36.8186 37.8358 36.3373 37.4353 36.0677C37.0348 35.7981 36.4841 35.6633 35.7833 35.6633C35.2518 35.6633 34.8398 35.7596 34.5471 35.9522C34.2544 36.137 34.1081 36.395 34.1081 36.7262C34.1081 37.0959 34.3199 37.377 34.7435 37.5696C35.1594 37.7698 35.7525 37.9547 36.5227 38.1241C37.8705 38.4322 39.0335 38.8211 40.0117 39.291C40.9667 39.7608 41.7292 40.427 42.2991 41.2896C42.8768 42.1446 43.1656 43.2498 43.1656 44.6053C43.1656 45.7529 42.9269 46.7927 42.4493 47.7246C41.9641 48.6566 41.2748 49.3921 40.3813 49.9312C39.4956 50.4704 38.479 50.74 37.3314 50.74Z" fill="#111827"/>
<path d="M54.0254 50.74C52.1076 50.74 50.4478 50.3279 49.0461 49.5038C47.652 48.6797 46.5891 47.5475 45.8575 46.1072C45.1335 44.6669 44.7715 43.0226 44.7715 41.1741C44.7715 39.2563 45.1335 37.585 45.8575 36.1601C46.5814 34.7276 47.6366 33.6223 49.023 32.8444C50.417 32.0588 52.0845 31.666 54.0254 31.666C55.9586 31.666 57.6222 32.055 59.0163 32.8329C60.4026 33.6185 61.4578 34.7276 62.1818 36.1601C62.9135 37.5927 63.2793 39.264 63.2793 41.1741C63.2793 43.0226 62.9173 44.6669 62.1933 46.1072C61.4694 47.5475 60.4065 48.6797 59.0047 49.5038C57.6107 50.3279 55.9509 50.74 54.0254 50.74ZM54.0254 46.6387C54.8572 46.6387 55.4926 46.1342 55.9316 45.1252C56.3783 44.1163 56.6017 42.7684 56.6017 41.0817C56.6017 39.4412 56.386 38.1434 55.9547 37.1883C55.5311 36.2333 54.888 35.7558 54.0254 35.7558C53.1551 35.7558 52.5081 36.2333 52.0845 37.1883C51.6609 38.1434 51.4491 39.4412 51.4491 41.0817C51.4491 42.7684 51.6686 44.1163 52.1076 45.1252C52.5466 46.1342 53.1859 46.6387 54.0254 46.6387Z" fill="#111827"/>
</svg>
