<?xml version="1.0" encoding="utf-8"?>
<svg xmlns="http://www.w3.org/2000/svg" fill="none" height="80" viewBox="0 0 80 80" width="80">
<path d="M45.7226 38.6328H33.3205C32.3421 38.6328 31.5488 39.426 31.5488 40.4045V46.6055C31.5488 47.584 32.3421 48.3773 33.3205 48.3773H45.7226C46.7011 48.3773 47.4943 47.584 47.4943 46.6055V40.4045C47.4943 39.426 46.7011 38.6328 45.7226 38.6328Z" fill="#111827"/>
<path d="M35.0918 38.6329V35.0895C35.0918 33.9147 35.5585 32.7881 36.3891 31.9575C37.2198 31.1268 38.3464 30.6602 39.5211 30.6602C40.6958 30.6602 41.8224 31.1268 42.6531 31.9575C43.4837 32.7881 43.9504 33.9147 43.9504 35.0895V38.6329" stroke="#111827" stroke-linecap="round" stroke-linejoin="round" stroke-width="1.25062"/>
<path d="M39.8427 7L40.7918 9.92109H43.8633L41.3784 11.7264L42.3276 14.6475L39.8427 12.8422L37.3579 14.6475L38.307 11.7264L35.8221 9.92109H38.8936L39.8427 7Z" fill="#111827"/>
<path d="M53.5029 12.2031L54.452 15.1242H57.5234L55.0386 16.9296L55.9877 19.8506L53.5029 18.0453L51.018 19.8506L51.9671 16.9296L49.4823 15.1242H52.5537L53.5029 12.2031Z" fill="#111827"/>
<path d="M25.5381 12.2031L24.589 15.1242H21.5176L24.0024 16.9296L23.0533 19.8506L25.5381 18.0453L28.023 19.8506L27.0739 16.9296L29.5587 15.1242H26.4873L25.5381 12.2031Z" fill="#111827"/>
<path d="M56.7529 60.9805L57.702 63.9016H60.7734L58.2886 65.7069L59.2377 68.628L56.7529 66.8227L54.268 68.628L55.2171 65.7069L52.7323 63.9016H55.8037L56.7529 60.9805Z" fill="#111827"/>
<path d="M22.2842 60.9805L21.3351 63.9016H18.2637L20.7485 65.7069L19.7994 68.628L22.2842 66.8227L24.7691 68.628L23.82 65.7069L26.3048 63.9016H23.2334L22.2842 60.9805Z" fill="#111827"/>
<path d="M65.2099 49.2754L66.159 52.1965H69.2305L66.7456 54.0018L67.6948 56.9229L65.2099 55.1176L62.7251 56.9229L63.6742 54.0018L61.1893 52.1965H64.2608L65.2099 49.2754Z" fill="#111827"/>
<path d="M13.8272 49.2754L12.8781 52.1965H9.80664L12.2915 54.0018L11.3424 56.9229L13.8272 55.1176L16.3121 56.9229L15.3629 54.0018L17.8478 52.1965H14.7763L13.8272 49.2754Z" fill="#111827"/>
<path d="M67.8095 34.9668L68.7586 37.8879H71.8301L69.3452 39.6932L70.2944 42.6143L67.8095 40.809L65.3247 42.6143L66.2738 39.6932L63.7889 37.8879H66.8604L67.8095 34.9668Z" fill="#111827"/>
<path d="M11.2276 34.9668L10.2785 37.8879H7.20703L9.69188 39.6932L8.74275 42.6143L11.2276 40.809L13.7124 42.6143L12.7633 39.6932L15.2482 37.8879H12.1767L11.2276 34.9668Z" fill="#111827"/>
<path d="M65.2099 20.6582L66.159 23.5793H69.2305L66.7456 25.3846L67.6948 28.3057L65.2099 26.5004L62.7251 28.3057L63.6742 25.3846L61.1893 23.5793H64.2608L65.2099 20.6582Z" fill="#111827"/>
<path d="M13.8272 20.6582L12.8781 23.5793H9.80664L12.2915 25.3846L11.3424 28.3057L13.8272 26.5004L16.3121 28.3057L15.3629 25.3846L17.8478 23.5793H14.7763L13.8272 20.6582Z" fill="#111827"/>
<path d="M39.8427 63.582L40.7918 66.5031H43.8633L41.3784 68.3085L42.3276 71.2296L39.8427 69.4242L37.3579 71.2296L38.307 68.3085L35.8221 66.5031H38.8936L39.8427 63.582Z" fill="#111827"/>
</svg>