<svg width="498" height="376" viewBox="0 0 498 376" fill="none" xmlns="http://www.w3.org/2000/svg">
<path d="M0 8.00586C0 3.58758 3.58172 0.00585938 8 0.00585938H490C494.418 0.00585938 498 3.58758 498 8.00586V347.006C498 351.424 494.418 355.006 490 355.006H8.00001C3.58174 355.006 0 351.424 0 347.006V8.00586Z" fill="#EFEEF0"/>
<circle opacity="0.2" cx="241" cy="192.006" r="88.5" stroke="#312F33"/>
<circle opacity="0.2" cx="241" cy="192.006" r="130.5" stroke="#312F33"/>
<circle cx="219" cy="62.0059" r="22" fill="#2BA29B"/>
<path d="M229.969 59.3784C229.83 59.1854 229.646 59.0283 229.435 58.92C229.223 58.8118 228.988 58.7555 228.75 58.7559H227.25V57.2559C227.25 56.858 227.092 56.4765 226.811 56.1952C226.529 55.9139 226.148 55.7559 225.75 55.7559H219.25L216.651 53.8059C216.391 53.612 216.075 53.5068 215.751 53.5059H210.75C210.352 53.5059 209.971 53.6639 209.689 53.9452C209.408 54.2265 209.25 54.608 209.25 55.0059V68.5059C209.25 68.7048 209.329 68.8955 209.47 69.0362C209.61 69.1768 209.801 69.2559 210 69.2559H226.791C226.948 69.2559 227.101 69.2063 227.229 69.1143C227.357 69.0223 227.452 68.8924 227.502 68.743L230.173 60.7302C230.248 60.5048 230.269 60.2647 230.233 60.0297C230.198 59.7948 230.107 59.5715 229.969 59.3784ZM215.751 55.0059L218.55 57.1059C218.68 57.2032 218.838 57.2559 219 57.2559H225.75V58.7559H213.541C213.226 58.7558 212.919 58.8549 212.664 59.039C212.408 59.223 212.217 59.4828 212.118 59.7815L210.75 63.884V55.0059H215.751Z" fill="white"/>
<circle cx="241" cy="285.006" r="10" transform="rotate(180 241 285.006)" fill="#524341"/>
<circle cx="291" cy="121.006" r="6" transform="rotate(180 291 121.006)" fill="#524341"/>
<circle cx="148" cy="187.006" r="25" fill="#2B3FA2"/>
<path d="M160.276 175.145H135.722C135.13 175.145 134.563 175.38 134.144 175.799C133.725 176.218 133.49 176.785 133.49 177.377V197.467C133.49 198.059 133.725 198.626 134.144 199.045C134.563 199.464 135.13 199.699 135.722 199.699H160.276C160.868 199.699 161.436 199.464 161.854 199.045C162.273 198.626 162.508 198.059 162.508 197.467V177.377C162.508 176.785 162.273 176.218 161.854 175.799C161.436 175.38 160.868 175.145 160.276 175.145ZM145.767 195.235H137.955C137.659 195.235 137.375 195.117 137.165 194.908C136.956 194.698 136.838 194.414 136.838 194.118C136.838 193.822 136.956 193.539 137.165 193.329C137.375 193.12 137.659 193.002 137.955 193.002H145.767C146.063 193.002 146.347 193.12 146.556 193.329C146.766 193.539 146.883 193.822 146.883 194.118C146.883 194.414 146.766 194.698 146.556 194.908C146.347 195.117 146.063 195.235 145.767 195.235ZM145.767 190.77H137.955C137.659 190.77 137.375 190.653 137.165 190.443C136.956 190.234 136.838 189.95 136.838 189.654C136.838 189.358 136.956 189.074 137.165 188.865C137.375 188.656 137.659 188.538 137.955 188.538H145.767C146.063 188.538 146.347 188.656 146.556 188.865C146.766 189.074 146.883 189.358 146.883 189.654C146.883 189.95 146.766 190.234 146.556 190.443C146.347 190.653 146.063 190.77 145.767 190.77ZM145.767 186.306H137.955C137.659 186.306 137.375 186.188 137.165 185.979C136.956 185.77 136.838 185.486 136.838 185.19C136.838 184.894 136.956 184.61 137.165 184.401C137.375 184.191 137.659 184.074 137.955 184.074H145.767C146.063 184.074 146.347 184.191 146.556 184.401C146.766 184.61 146.883 184.894 146.883 185.19C146.883 185.486 146.766 185.77 146.556 185.979C146.347 186.188 146.063 186.306 145.767 186.306ZM145.767 181.842H137.955C137.659 181.842 137.375 181.724 137.165 181.515C136.956 181.305 136.838 181.022 136.838 180.726C136.838 180.43 136.956 180.146 137.165 179.936C137.375 179.727 137.659 179.61 137.955 179.61H145.767C146.063 179.61 146.347 179.727 146.556 179.936C146.766 180.146 146.883 180.43 146.883 180.726C146.883 181.022 146.766 181.305 146.556 181.515C146.347 181.724 146.063 181.842 145.767 181.842ZM158.044 195.235H150.231C149.935 195.235 149.651 195.117 149.442 194.908C149.233 194.698 149.115 194.414 149.115 194.118C149.115 193.822 149.233 193.539 149.442 193.329C149.651 193.12 149.935 193.002 150.231 193.002H158.044C158.34 193.002 158.624 193.12 158.833 193.329C159.042 193.539 159.16 193.822 159.16 194.118C159.16 194.414 159.042 194.698 158.833 194.908C158.624 195.117 158.34 195.235 158.044 195.235ZM158.044 190.77H150.231C149.935 190.77 149.651 190.653 149.442 190.443C149.233 190.234 149.115 189.95 149.115 189.654C149.115 189.358 149.233 189.074 149.442 188.865C149.651 188.656 149.935 188.538 150.231 188.538H158.044C158.34 188.538 158.624 188.656 158.833 188.865C159.042 189.074 159.16 189.358 159.16 189.654C159.16 189.95 159.042 190.234 158.833 190.443C158.624 190.653 158.34 190.77 158.044 190.77ZM158.044 186.306H150.231C149.935 186.306 149.651 186.188 149.442 185.979C149.233 185.77 149.115 185.486 149.115 185.19C149.115 184.894 149.233 184.61 149.442 184.401C149.651 184.191 149.935 184.074 150.231 184.074H158.044C158.34 184.074 158.624 184.191 158.833 184.401C159.042 184.61 159.16 184.894 159.16 185.19C159.16 185.486 159.042 185.77 158.833 185.979C158.624 186.188 158.34 186.306 158.044 186.306ZM158.044 181.842H150.231C149.935 181.842 149.651 181.724 149.442 181.515C149.233 181.305 149.115 181.022 149.115 180.726C149.115 180.43 149.233 180.146 149.442 179.936C149.651 179.727 149.935 179.61 150.231 179.61H158.044C158.34 179.61 158.624 179.727 158.833 179.936C159.042 180.146 159.16 180.43 159.16 180.726C159.16 181.022 159.042 181.305 158.833 181.515C158.624 181.724 158.34 181.842 158.044 181.842Z" fill="white"/>
<circle cx="363" cy="224.006" r="25" fill="#F26702"/>
<path d="M353.792 220.808C353.6 220.616 353.448 220.389 353.345 220.139C353.241 219.888 353.188 219.62 353.188 219.349C353.188 219.078 353.241 218.81 353.345 218.56C353.448 218.309 353.6 218.082 353.792 217.891L362.042 209.641C362.429 209.254 362.953 209.036 363.5 209.036C364.047 209.036 364.572 209.254 364.959 209.641C365.346 210.027 365.563 210.552 365.563 211.099C365.563 211.646 365.346 212.171 364.959 212.558L356.709 220.808C356.517 220.999 356.29 221.151 356.04 221.255C355.79 221.359 355.521 221.412 355.25 221.412C354.98 221.412 354.711 221.359 354.461 221.255C354.211 221.151 353.983 220.999 353.792 220.808ZM378.365 223.047C378.174 222.855 377.946 222.703 377.696 222.6C377.446 222.496 377.178 222.443 376.907 222.443C376.636 222.443 376.368 222.496 376.117 222.6C375.867 222.703 375.64 222.855 375.448 223.047L367.198 231.297C367.007 231.488 366.855 231.716 366.751 231.966C366.647 232.216 366.594 232.484 366.594 232.755C366.594 233.026 366.647 233.294 366.751 233.545C366.855 233.795 367.007 234.022 367.198 234.214C367.39 234.406 367.617 234.557 367.867 234.661C368.118 234.765 368.386 234.818 368.657 234.818C368.928 234.818 369.196 234.765 369.446 234.661C369.696 234.557 369.924 234.406 370.115 234.214L378.365 225.964C378.557 225.772 378.709 225.545 378.812 225.295C378.916 225.044 378.969 224.776 378.969 224.505C378.969 224.234 378.916 223.966 378.812 223.716C378.709 223.466 378.557 223.238 378.365 223.047ZM373.839 221.01L366.996 214.166C366.948 214.118 366.891 214.08 366.828 214.055C366.766 214.029 366.699 214.015 366.631 214.015C366.563 214.015 366.496 214.029 366.433 214.055C366.371 214.08 366.314 214.118 366.266 214.166L358.318 222.115C358.27 222.163 358.232 222.22 358.206 222.282C358.18 222.345 358.167 222.412 358.167 222.48C358.167 222.547 358.18 222.614 358.206 222.677C358.232 222.74 358.27 222.797 358.318 222.844L360.277 224.808L350.698 234.392C350.328 234.782 350.124 235.301 350.131 235.839C350.138 236.377 350.355 236.89 350.735 237.271C351.115 237.651 351.629 237.868 352.167 237.875C352.705 237.882 353.224 237.678 353.614 237.308L363.198 227.729L365.161 229.692C365.209 229.74 365.266 229.778 365.329 229.804C365.391 229.83 365.458 229.843 365.526 229.843C365.594 229.843 365.661 229.83 365.724 229.804C365.786 229.778 365.843 229.74 365.891 229.692L373.839 221.744C373.888 221.696 373.926 221.638 373.953 221.576C373.979 221.513 373.993 221.445 373.993 221.377C373.993 221.309 373.979 221.241 373.953 221.178C373.926 221.115 373.888 221.058 373.839 221.01Z" fill="white"/>
<g filter="url(#filter0_dddd_933_3775)">
<circle cx="241" cy="191.006" r="60" fill="white"/>
</g>
<g filter="url(#filter1_d_933_3775)">
<circle cx="241.5" cy="180.506" r="17.5" fill="#312F33"/>
<path d="M240.969 172.117L249.454 186.773H232.484L240.969 172.117Z" fill="white"/>
</g>
<path d="M219.74 208.632V213.61H217.7V208.632H219.74ZM230.412 216.178V218.006H221.673V216.178H227.368V212.84C227.368 211.958 227.202 211.342 226.87 210.989C226.542 210.637 225.981 210.46 225.185 210.46H222.028V208.632H225.216C226.686 208.632 227.751 208.94 228.41 209.554C229.075 210.168 229.407 211.175 229.407 212.575V216.178H230.412ZM238.637 218.006H236.59V212.56C236.59 211.78 236.422 211.236 236.084 210.929C235.752 210.616 235.191 210.46 234.4 210.46H231.258V208.632H234.521C235.513 208.632 236.309 208.766 236.908 209.033C237.512 209.295 237.95 209.715 238.222 210.294C238.499 210.868 238.637 211.629 238.637 212.575V218.006ZM243.23 208.632V218.006H241.19V208.632H243.23ZM250.858 208.587C252.142 208.587 253.076 208.965 253.66 209.72C254.245 210.47 254.537 211.644 254.537 213.24V218.006H249.665V216.178H252.482V213.398C252.482 212.336 252.354 211.576 252.097 211.117C251.845 210.654 251.4 210.423 250.76 210.423C250.171 210.423 249.675 210.717 249.272 211.306C248.869 211.911 248.494 212.918 248.147 214.327L247.233 218.006H245.058L246.077 214.093C246.203 213.62 246.324 213.197 246.44 212.824C246.561 212.452 246.676 212.132 246.787 211.865L244.914 208.738H247.172L247.882 210.068C248.184 209.604 248.597 209.242 249.121 208.98C249.65 208.718 250.229 208.587 250.858 208.587ZM263.328 212.824C263.328 211.978 263.167 211.374 262.845 211.012C262.523 210.644 261.959 210.46 261.153 210.46H259.136V218.006H257.097V208.632H261.153C262.644 208.632 263.719 208.942 264.378 209.561C265.043 210.176 265.375 211.18 265.375 212.575V218.006H263.328V212.824Z" fill="#312F33"/>
<defs>
<filter id="filter0_dddd_933_3775" x="168.187" y="122.769" width="221.586" height="252.702" filterUnits="userSpaceOnUse" color-interpolation-filters="sRGB">
<feFlood flood-opacity="0" result="BackgroundImageFix"/>
<feColorMatrix in="SourceAlpha" type="matrix" values="0 0 0 0 0 0 0 0 0 0 0 0 0 0 0 0 0 0 127 0" result="hardAlpha"/>
<feOffset dx="2.74557" dy="5.49113"/>
<feGaussianBlur stdDeviation="6.86392"/>
<feColorMatrix type="matrix" values="0 0 0 0 0.670588 0 0 0 0 0.670588 0 0 0 0 0.670588 0 0 0 0.1 0"/>
<feBlend mode="normal" in2="BackgroundImageFix" result="effect1_dropShadow_933_3775"/>
<feColorMatrix in="SourceAlpha" type="matrix" values="0 0 0 0 0 0 0 0 0 0 0 0 0 0 0 0 0 0 127 0" result="hardAlpha"/>
<feOffset dx="11.8975" dy="21.0493"/>
<feGaussianBlur stdDeviation="12.3551"/>
<feColorMatrix type="matrix" values="0 0 0 0 0.670588 0 0 0 0 0.670588 0 0 0 0 0.670588 0 0 0 0.09 0"/>
<feBlend mode="normal" in2="effect1_dropShadow_933_3775" result="effect2_dropShadow_933_3775"/>
<feColorMatrix in="SourceAlpha" type="matrix" values="0 0 0 0 0 0 0 0 0 0 0 0 0 0 0 0 0 0 127 0" result="hardAlpha"/>
<feOffset dx="27.4557" dy="47.5898"/>
<feGaussianBlur stdDeviation="16.4734"/>
<feColorMatrix type="matrix" values="0 0 0 0 0.670588 0 0 0 0 0.670588 0 0 0 0 0.670588 0 0 0 0.05 0"/>
<feBlend mode="normal" in2="effect2_dropShadow_933_3775" result="effect3_dropShadow_933_3775"/>
<feColorMatrix in="SourceAlpha" type="matrix" values="0 0 0 0 0 0 0 0 0 0 0 0 0 0 0 0 0 0 127 0" result="hardAlpha"/>
<feOffset dx="49.4202" dy="85.1126"/>
<feGaussianBlur stdDeviation="19.6766"/>
<feColorMatrix type="matrix" values="0 0 0 0 0.670588 0 0 0 0 0.670588 0 0 0 0 0.670588 0 0 0 0.01 0"/>
<feBlend mode="normal" in2="effect3_dropShadow_933_3775" result="effect4_dropShadow_933_3775"/>
<feBlend mode="normal" in="SourceGraphic" in2="effect4_dropShadow_933_3775" result="shape"/>
</filter>
<filter id="filter1_d_933_3775" x="221.544" y="159.936" width="39.9123" height="39.9123" filterUnits="userSpaceOnUse" color-interpolation-filters="sRGB">
<feFlood flood-opacity="0" result="BackgroundImageFix"/>
<feColorMatrix in="SourceAlpha" type="matrix" values="0 0 0 0 0 0 0 0 0 0 0 0 0 0 0 0 0 0 127 0" result="hardAlpha"/>
<feOffset dy="-0.614035"/>
<feGaussianBlur stdDeviation="1.22807"/>
<feComposite in2="hardAlpha" operator="out"/>
<feColorMatrix type="matrix" values="0 0 0 0 0 0 0 0 0 0 0 0 0 0 0 0 0 0 0.19 0"/>
<feBlend mode="normal" in2="BackgroundImageFix" result="effect1_dropShadow_933_3775"/>
<feBlend mode="normal" in="SourceGraphic" in2="effect1_dropShadow_933_3775" result="shape"/>
</filter>
</defs>
</svg>
